<mxfile host="app.diagrams.net" modified="2020-11-06T12:52:22.522Z" agent="5.0 (X11; Linux x86_64) AppleWebKit/537.36 (KHTML, like Gecko) Chrome/86.0.4240.183 Safari/537.36" etag="xGb0iBediQaOLs1QONkd" version="13.9.2" type="github">
  <diagram id="Sg8JhGEIXN2WgDA96BhB" name="Page-1">
    <mxGraphModel dx="2577" dy="1268" grid="1" gridSize="10" guides="1" tooltips="1" connect="1" arrows="1" fold="1" page="1" pageScale="1" pageWidth="827" pageHeight="1169" math="0" shadow="0">
      <root>
        <mxCell id="0" />
        <mxCell id="1" parent="0" />
        <mxCell id="R8BKyLHPafvrFV4cf_5N-1" value="User" style="shape=table;startSize=30;container=1;collapsible=1;childLayout=tableLayout;fixedRows=1;rowLines=0;fontStyle=1;align=center;resizeLast=1;" vertex="1" parent="1">
          <mxGeometry x="30" y="20" width="180" height="280" as="geometry" />
        </mxCell>
        <mxCell id="R8BKyLHPafvrFV4cf_5N-2" value="" style="shape=partialRectangle;collapsible=0;dropTarget=0;pointerEvents=0;fillColor=none;top=0;left=0;bottom=1;right=0;points=[[0,0.5],[1,0.5]];portConstraint=eastwest;" vertex="1" parent="R8BKyLHPafvrFV4cf_5N-1">
          <mxGeometry y="30" width="180" height="30" as="geometry" />
        </mxCell>
        <mxCell id="R8BKyLHPafvrFV4cf_5N-3" value="PK" style="shape=partialRectangle;connectable=0;fillColor=none;top=0;left=0;bottom=0;right=0;fontStyle=1;overflow=hidden;" vertex="1" parent="R8BKyLHPafvrFV4cf_5N-2">
          <mxGeometry width="30" height="30" as="geometry" />
        </mxCell>
        <mxCell id="R8BKyLHPafvrFV4cf_5N-4" value="id" style="shape=partialRectangle;connectable=0;fillColor=none;top=0;left=0;bottom=0;right=0;align=left;spacingLeft=6;fontStyle=5;overflow=hidden;" vertex="1" parent="R8BKyLHPafvrFV4cf_5N-2">
          <mxGeometry x="30" width="150" height="30" as="geometry" />
        </mxCell>
        <mxCell id="R8BKyLHPafvrFV4cf_5N-5" value="" style="shape=partialRectangle;collapsible=0;dropTarget=0;pointerEvents=0;fillColor=none;top=0;left=0;bottom=0;right=0;points=[[0,0.5],[1,0.5]];portConstraint=eastwest;" vertex="1" parent="R8BKyLHPafvrFV4cf_5N-1">
          <mxGeometry y="60" width="180" height="30" as="geometry" />
        </mxCell>
        <mxCell id="R8BKyLHPafvrFV4cf_5N-6" value="" style="shape=partialRectangle;connectable=0;fillColor=none;top=0;left=0;bottom=0;right=0;editable=1;overflow=hidden;" vertex="1" parent="R8BKyLHPafvrFV4cf_5N-5">
          <mxGeometry width="30" height="30" as="geometry" />
        </mxCell>
        <mxCell id="R8BKyLHPafvrFV4cf_5N-7" value="name" style="shape=partialRectangle;connectable=0;fillColor=none;top=0;left=0;bottom=0;right=0;align=left;spacingLeft=6;overflow=hidden;" vertex="1" parent="R8BKyLHPafvrFV4cf_5N-5">
          <mxGeometry x="30" width="150" height="30" as="geometry" />
        </mxCell>
        <mxCell id="R8BKyLHPafvrFV4cf_5N-8" value="" style="shape=partialRectangle;collapsible=0;dropTarget=0;pointerEvents=0;fillColor=none;top=0;left=0;bottom=0;right=0;points=[[0,0.5],[1,0.5]];portConstraint=eastwest;" vertex="1" parent="R8BKyLHPafvrFV4cf_5N-1">
          <mxGeometry y="90" width="180" height="30" as="geometry" />
        </mxCell>
        <mxCell id="R8BKyLHPafvrFV4cf_5N-9" value="" style="shape=partialRectangle;connectable=0;fillColor=none;top=0;left=0;bottom=0;right=0;editable=1;overflow=hidden;" vertex="1" parent="R8BKyLHPafvrFV4cf_5N-8">
          <mxGeometry width="30" height="30" as="geometry" />
        </mxCell>
        <mxCell id="R8BKyLHPafvrFV4cf_5N-10" value="email" style="shape=partialRectangle;connectable=0;fillColor=none;top=0;left=0;bottom=0;right=0;align=left;spacingLeft=6;overflow=hidden;" vertex="1" parent="R8BKyLHPafvrFV4cf_5N-8">
          <mxGeometry x="30" width="150" height="30" as="geometry" />
        </mxCell>
        <mxCell id="R8BKyLHPafvrFV4cf_5N-11" value="" style="shape=partialRectangle;collapsible=0;dropTarget=0;pointerEvents=0;fillColor=none;top=0;left=0;bottom=0;right=0;points=[[0,0.5],[1,0.5]];portConstraint=eastwest;" vertex="1" parent="R8BKyLHPafvrFV4cf_5N-1">
          <mxGeometry y="120" width="180" height="30" as="geometry" />
        </mxCell>
        <mxCell id="R8BKyLHPafvrFV4cf_5N-12" value="" style="shape=partialRectangle;connectable=0;fillColor=none;top=0;left=0;bottom=0;right=0;editable=1;overflow=hidden;" vertex="1" parent="R8BKyLHPafvrFV4cf_5N-11">
          <mxGeometry width="30" height="30" as="geometry" />
        </mxCell>
        <mxCell id="R8BKyLHPafvrFV4cf_5N-13" value="password" style="shape=partialRectangle;connectable=0;fillColor=none;top=0;left=0;bottom=0;right=0;align=left;spacingLeft=6;overflow=hidden;" vertex="1" parent="R8BKyLHPafvrFV4cf_5N-11">
          <mxGeometry x="30" width="150" height="30" as="geometry" />
        </mxCell>
        <mxCell id="R8BKyLHPafvrFV4cf_5N-14" value="" style="shape=partialRectangle;collapsible=0;dropTarget=0;pointerEvents=0;fillColor=none;top=0;left=0;bottom=0;right=0;points=[[0,0.5],[1,0.5]];portConstraint=eastwest;" vertex="1" parent="R8BKyLHPafvrFV4cf_5N-1">
          <mxGeometry y="150" width="180" height="30" as="geometry" />
        </mxCell>
        <mxCell id="R8BKyLHPafvrFV4cf_5N-15" value="FK" style="shape=partialRectangle;connectable=0;fillColor=none;top=0;left=0;bottom=0;right=0;editable=1;overflow=hidden;" vertex="1" parent="R8BKyLHPafvrFV4cf_5N-14">
          <mxGeometry width="30" height="30" as="geometry" />
        </mxCell>
        <mxCell id="R8BKyLHPafvrFV4cf_5N-16" value="group" style="shape=partialRectangle;connectable=0;fillColor=none;top=0;left=0;bottom=0;right=0;align=left;spacingLeft=6;overflow=hidden;" vertex="1" parent="R8BKyLHPafvrFV4cf_5N-14">
          <mxGeometry x="30" width="150" height="30" as="geometry" />
        </mxCell>
        <mxCell id="R8BKyLHPafvrFV4cf_5N-17" value="" style="shape=partialRectangle;collapsible=0;dropTarget=0;pointerEvents=0;fillColor=none;top=0;left=0;bottom=0;right=0;points=[[0,0.5],[1,0.5]];portConstraint=eastwest;" vertex="1" parent="R8BKyLHPafvrFV4cf_5N-1">
          <mxGeometry y="180" width="180" height="30" as="geometry" />
        </mxCell>
        <mxCell id="R8BKyLHPafvrFV4cf_5N-18" value="" style="shape=partialRectangle;connectable=0;fillColor=none;top=0;left=0;bottom=0;right=0;editable=1;overflow=hidden;" vertex="1" parent="R8BKyLHPafvrFV4cf_5N-17">
          <mxGeometry width="30" height="30" as="geometry" />
        </mxCell>
        <mxCell id="R8BKyLHPafvrFV4cf_5N-19" value="enabled" style="shape=partialRectangle;connectable=0;fillColor=none;top=0;left=0;bottom=0;right=0;align=left;spacingLeft=6;overflow=hidden;" vertex="1" parent="R8BKyLHPafvrFV4cf_5N-17">
          <mxGeometry x="30" width="150" height="30" as="geometry" />
        </mxCell>
        <mxCell id="R8BKyLHPafvrFV4cf_5N-20" value="" style="shape=partialRectangle;collapsible=0;dropTarget=0;pointerEvents=0;fillColor=none;top=0;left=0;bottom=0;right=0;points=[[0,0.5],[1,0.5]];portConstraint=eastwest;" vertex="1" parent="R8BKyLHPafvrFV4cf_5N-1">
          <mxGeometry y="210" width="180" height="30" as="geometry" />
        </mxCell>
        <mxCell id="R8BKyLHPafvrFV4cf_5N-21" value="" style="shape=partialRectangle;connectable=0;fillColor=none;top=0;left=0;bottom=0;right=0;editable=1;overflow=hidden;" vertex="1" parent="R8BKyLHPafvrFV4cf_5N-20">
          <mxGeometry width="30" height="30" as="geometry" />
        </mxCell>
        <mxCell id="R8BKyLHPafvrFV4cf_5N-22" value="createAt" style="shape=partialRectangle;connectable=0;fillColor=none;top=0;left=0;bottom=0;right=0;align=left;spacingLeft=6;overflow=hidden;" vertex="1" parent="R8BKyLHPafvrFV4cf_5N-20">
          <mxGeometry x="30" width="150" height="30" as="geometry" />
        </mxCell>
        <mxCell id="R8BKyLHPafvrFV4cf_5N-23" value="" style="shape=partialRectangle;collapsible=0;dropTarget=0;pointerEvents=0;fillColor=none;top=0;left=0;bottom=0;right=0;points=[[0,0.5],[1,0.5]];portConstraint=eastwest;" vertex="1" parent="R8BKyLHPafvrFV4cf_5N-1">
          <mxGeometry y="240" width="180" height="30" as="geometry" />
        </mxCell>
        <mxCell id="R8BKyLHPafvrFV4cf_5N-24" value="" style="shape=partialRectangle;connectable=0;fillColor=none;top=0;left=0;bottom=0;right=0;editable=1;overflow=hidden;" vertex="1" parent="R8BKyLHPafvrFV4cf_5N-23">
          <mxGeometry width="30" height="30" as="geometry" />
        </mxCell>
        <mxCell id="R8BKyLHPafvrFV4cf_5N-25" value="updateAt" style="shape=partialRectangle;connectable=0;fillColor=none;top=0;left=0;bottom=0;right=0;align=left;spacingLeft=6;overflow=hidden;" vertex="1" parent="R8BKyLHPafvrFV4cf_5N-23">
          <mxGeometry x="30" width="150" height="30" as="geometry" />
        </mxCell>
        <mxCell id="R8BKyLHPafvrFV4cf_5N-26" value="Group" style="shape=table;startSize=30;container=1;collapsible=1;childLayout=tableLayout;fixedRows=1;rowLines=0;fontStyle=1;align=center;resizeLast=1;" vertex="1" parent="1">
          <mxGeometry x="280" y="20" width="180" height="220" as="geometry" />
        </mxCell>
        <mxCell id="R8BKyLHPafvrFV4cf_5N-27" value="" style="shape=partialRectangle;collapsible=0;dropTarget=0;pointerEvents=0;fillColor=none;top=0;left=0;bottom=1;right=0;points=[[0,0.5],[1,0.5]];portConstraint=eastwest;" vertex="1" parent="R8BKyLHPafvrFV4cf_5N-26">
          <mxGeometry y="30" width="180" height="30" as="geometry" />
        </mxCell>
        <mxCell id="R8BKyLHPafvrFV4cf_5N-28" value="PK" style="shape=partialRectangle;connectable=0;fillColor=none;top=0;left=0;bottom=0;right=0;fontStyle=1;overflow=hidden;" vertex="1" parent="R8BKyLHPafvrFV4cf_5N-27">
          <mxGeometry width="30" height="30" as="geometry" />
        </mxCell>
        <mxCell id="R8BKyLHPafvrFV4cf_5N-29" value="id" style="shape=partialRectangle;connectable=0;fillColor=none;top=0;left=0;bottom=0;right=0;align=left;spacingLeft=6;fontStyle=5;overflow=hidden;" vertex="1" parent="R8BKyLHPafvrFV4cf_5N-27">
          <mxGeometry x="30" width="150" height="30" as="geometry" />
        </mxCell>
        <mxCell id="R8BKyLHPafvrFV4cf_5N-30" value="" style="shape=partialRectangle;collapsible=0;dropTarget=0;pointerEvents=0;fillColor=none;top=0;left=0;bottom=0;right=0;points=[[0,0.5],[1,0.5]];portConstraint=eastwest;" vertex="1" parent="R8BKyLHPafvrFV4cf_5N-26">
          <mxGeometry y="60" width="180" height="30" as="geometry" />
        </mxCell>
        <mxCell id="R8BKyLHPafvrFV4cf_5N-31" value="" style="shape=partialRectangle;connectable=0;fillColor=none;top=0;left=0;bottom=0;right=0;editable=1;overflow=hidden;" vertex="1" parent="R8BKyLHPafvrFV4cf_5N-30">
          <mxGeometry width="30" height="30" as="geometry" />
        </mxCell>
        <mxCell id="R8BKyLHPafvrFV4cf_5N-32" value="name" style="shape=partialRectangle;connectable=0;fillColor=none;top=0;left=0;bottom=0;right=0;align=left;spacingLeft=6;overflow=hidden;" vertex="1" parent="R8BKyLHPafvrFV4cf_5N-30">
          <mxGeometry x="30" width="150" height="30" as="geometry" />
        </mxCell>
        <mxCell id="R8BKyLHPafvrFV4cf_5N-33" value="" style="shape=partialRectangle;collapsible=0;dropTarget=0;pointerEvents=0;fillColor=none;top=0;left=0;bottom=0;right=0;points=[[0,0.5],[1,0.5]];portConstraint=eastwest;" vertex="1" parent="R8BKyLHPafvrFV4cf_5N-26">
          <mxGeometry y="90" width="180" height="30" as="geometry" />
        </mxCell>
        <mxCell id="R8BKyLHPafvrFV4cf_5N-34" value="" style="shape=partialRectangle;connectable=0;fillColor=none;top=0;left=0;bottom=0;right=0;editable=1;overflow=hidden;" vertex="1" parent="R8BKyLHPafvrFV4cf_5N-33">
          <mxGeometry width="30" height="30" as="geometry" />
        </mxCell>
        <mxCell id="R8BKyLHPafvrFV4cf_5N-35" value="description" style="shape=partialRectangle;connectable=0;fillColor=none;top=0;left=0;bottom=0;right=0;align=left;spacingLeft=6;overflow=hidden;" vertex="1" parent="R8BKyLHPafvrFV4cf_5N-33">
          <mxGeometry x="30" width="150" height="30" as="geometry" />
        </mxCell>
        <mxCell id="R8BKyLHPafvrFV4cf_5N-42" value="" style="shape=partialRectangle;collapsible=0;dropTarget=0;pointerEvents=0;fillColor=none;top=0;left=0;bottom=0;right=0;points=[[0,0.5],[1,0.5]];portConstraint=eastwest;" vertex="1" parent="R8BKyLHPafvrFV4cf_5N-26">
          <mxGeometry y="120" width="180" height="30" as="geometry" />
        </mxCell>
        <mxCell id="R8BKyLHPafvrFV4cf_5N-43" value="" style="shape=partialRectangle;connectable=0;fillColor=none;top=0;left=0;bottom=0;right=0;editable=1;overflow=hidden;" vertex="1" parent="R8BKyLHPafvrFV4cf_5N-42">
          <mxGeometry width="30" height="30" as="geometry" />
        </mxCell>
        <mxCell id="R8BKyLHPafvrFV4cf_5N-44" value="enabled" style="shape=partialRectangle;connectable=0;fillColor=none;top=0;left=0;bottom=0;right=0;align=left;spacingLeft=6;overflow=hidden;" vertex="1" parent="R8BKyLHPafvrFV4cf_5N-42">
          <mxGeometry x="30" width="150" height="30" as="geometry" />
        </mxCell>
        <mxCell id="R8BKyLHPafvrFV4cf_5N-45" value="" style="shape=partialRectangle;collapsible=0;dropTarget=0;pointerEvents=0;fillColor=none;top=0;left=0;bottom=0;right=0;points=[[0,0.5],[1,0.5]];portConstraint=eastwest;" vertex="1" parent="R8BKyLHPafvrFV4cf_5N-26">
          <mxGeometry y="150" width="180" height="30" as="geometry" />
        </mxCell>
        <mxCell id="R8BKyLHPafvrFV4cf_5N-46" value="" style="shape=partialRectangle;connectable=0;fillColor=none;top=0;left=0;bottom=0;right=0;editable=1;overflow=hidden;" vertex="1" parent="R8BKyLHPafvrFV4cf_5N-45">
          <mxGeometry width="30" height="30" as="geometry" />
        </mxCell>
        <mxCell id="R8BKyLHPafvrFV4cf_5N-47" value="createAt" style="shape=partialRectangle;connectable=0;fillColor=none;top=0;left=0;bottom=0;right=0;align=left;spacingLeft=6;overflow=hidden;" vertex="1" parent="R8BKyLHPafvrFV4cf_5N-45">
          <mxGeometry x="30" width="150" height="30" as="geometry" />
        </mxCell>
        <mxCell id="R8BKyLHPafvrFV4cf_5N-48" value="" style="shape=partialRectangle;collapsible=0;dropTarget=0;pointerEvents=0;fillColor=none;top=0;left=0;bottom=0;right=0;points=[[0,0.5],[1,0.5]];portConstraint=eastwest;" vertex="1" parent="R8BKyLHPafvrFV4cf_5N-26">
          <mxGeometry y="180" width="180" height="30" as="geometry" />
        </mxCell>
        <mxCell id="R8BKyLHPafvrFV4cf_5N-49" value="" style="shape=partialRectangle;connectable=0;fillColor=none;top=0;left=0;bottom=0;right=0;editable=1;overflow=hidden;" vertex="1" parent="R8BKyLHPafvrFV4cf_5N-48">
          <mxGeometry width="30" height="30" as="geometry" />
        </mxCell>
        <mxCell id="R8BKyLHPafvrFV4cf_5N-50" value="updateAt" style="shape=partialRectangle;connectable=0;fillColor=none;top=0;left=0;bottom=0;right=0;align=left;spacingLeft=6;overflow=hidden;" vertex="1" parent="R8BKyLHPafvrFV4cf_5N-48">
          <mxGeometry x="30" width="150" height="30" as="geometry" />
        </mxCell>
        <mxCell id="R8BKyLHPafvrFV4cf_5N-51" style="edgeStyle=orthogonalEdgeStyle;rounded=0;orthogonalLoop=1;jettySize=auto;html=1;exitX=1;exitY=0.5;exitDx=0;exitDy=0;entryX=0;entryY=0.5;entryDx=0;entryDy=0;" edge="1" parent="1" source="R8BKyLHPafvrFV4cf_5N-14" target="R8BKyLHPafvrFV4cf_5N-27">
          <mxGeometry relative="1" as="geometry" />
        </mxCell>
        <mxCell id="R8BKyLHPafvrFV4cf_5N-52" value="Course" style="shape=table;startSize=30;container=1;collapsible=1;childLayout=tableLayout;fixedRows=1;rowLines=0;fontStyle=1;align=center;resizeLast=1;" vertex="1" parent="1">
          <mxGeometry x="620" y="20" width="180" height="220" as="geometry" />
        </mxCell>
        <mxCell id="R8BKyLHPafvrFV4cf_5N-53" value="" style="shape=partialRectangle;collapsible=0;dropTarget=0;pointerEvents=0;fillColor=none;top=0;left=0;bottom=1;right=0;points=[[0,0.5],[1,0.5]];portConstraint=eastwest;" vertex="1" parent="R8BKyLHPafvrFV4cf_5N-52">
          <mxGeometry y="30" width="180" height="30" as="geometry" />
        </mxCell>
        <mxCell id="R8BKyLHPafvrFV4cf_5N-54" value="PK" style="shape=partialRectangle;connectable=0;fillColor=none;top=0;left=0;bottom=0;right=0;fontStyle=1;overflow=hidden;" vertex="1" parent="R8BKyLHPafvrFV4cf_5N-53">
          <mxGeometry width="30" height="30" as="geometry" />
        </mxCell>
        <mxCell id="R8BKyLHPafvrFV4cf_5N-55" value="id" style="shape=partialRectangle;connectable=0;fillColor=none;top=0;left=0;bottom=0;right=0;align=left;spacingLeft=6;fontStyle=5;overflow=hidden;" vertex="1" parent="R8BKyLHPafvrFV4cf_5N-53">
          <mxGeometry x="30" width="150" height="30" as="geometry" />
        </mxCell>
        <mxCell id="R8BKyLHPafvrFV4cf_5N-56" value="" style="shape=partialRectangle;collapsible=0;dropTarget=0;pointerEvents=0;fillColor=none;top=0;left=0;bottom=0;right=0;points=[[0,0.5],[1,0.5]];portConstraint=eastwest;" vertex="1" parent="R8BKyLHPafvrFV4cf_5N-52">
          <mxGeometry y="60" width="180" height="30" as="geometry" />
        </mxCell>
        <mxCell id="R8BKyLHPafvrFV4cf_5N-57" value="" style="shape=partialRectangle;connectable=0;fillColor=none;top=0;left=0;bottom=0;right=0;editable=1;overflow=hidden;" vertex="1" parent="R8BKyLHPafvrFV4cf_5N-56">
          <mxGeometry width="30" height="30" as="geometry" />
        </mxCell>
        <mxCell id="R8BKyLHPafvrFV4cf_5N-58" value="name" style="shape=partialRectangle;connectable=0;fillColor=none;top=0;left=0;bottom=0;right=0;align=left;spacingLeft=6;overflow=hidden;" vertex="1" parent="R8BKyLHPafvrFV4cf_5N-56">
          <mxGeometry x="30" width="150" height="30" as="geometry" />
        </mxCell>
        <mxCell id="R8BKyLHPafvrFV4cf_5N-59" value="" style="shape=partialRectangle;collapsible=0;dropTarget=0;pointerEvents=0;fillColor=none;top=0;left=0;bottom=0;right=0;points=[[0,0.5],[1,0.5]];portConstraint=eastwest;" vertex="1" parent="R8BKyLHPafvrFV4cf_5N-52">
          <mxGeometry y="90" width="180" height="30" as="geometry" />
        </mxCell>
        <mxCell id="R8BKyLHPafvrFV4cf_5N-60" value="" style="shape=partialRectangle;connectable=0;fillColor=none;top=0;left=0;bottom=0;right=0;editable=1;overflow=hidden;" vertex="1" parent="R8BKyLHPafvrFV4cf_5N-59">
          <mxGeometry width="30" height="30" as="geometry" />
        </mxCell>
        <mxCell id="R8BKyLHPafvrFV4cf_5N-61" value="description" style="shape=partialRectangle;connectable=0;fillColor=none;top=0;left=0;bottom=0;right=0;align=left;spacingLeft=6;overflow=hidden;" vertex="1" parent="R8BKyLHPafvrFV4cf_5N-59">
          <mxGeometry x="30" width="150" height="30" as="geometry" />
        </mxCell>
        <mxCell id="R8BKyLHPafvrFV4cf_5N-62" value="" style="shape=partialRectangle;collapsible=0;dropTarget=0;pointerEvents=0;fillColor=none;top=0;left=0;bottom=0;right=0;points=[[0,0.5],[1,0.5]];portConstraint=eastwest;" vertex="1" parent="R8BKyLHPafvrFV4cf_5N-52">
          <mxGeometry y="120" width="180" height="30" as="geometry" />
        </mxCell>
        <mxCell id="R8BKyLHPafvrFV4cf_5N-63" value="" style="shape=partialRectangle;connectable=0;fillColor=none;top=0;left=0;bottom=0;right=0;editable=1;overflow=hidden;" vertex="1" parent="R8BKyLHPafvrFV4cf_5N-62">
          <mxGeometry width="30" height="30" as="geometry" />
        </mxCell>
        <mxCell id="R8BKyLHPafvrFV4cf_5N-64" value="enabled" style="shape=partialRectangle;connectable=0;fillColor=none;top=0;left=0;bottom=0;right=0;align=left;spacingLeft=6;overflow=hidden;" vertex="1" parent="R8BKyLHPafvrFV4cf_5N-62">
          <mxGeometry x="30" width="150" height="30" as="geometry" />
        </mxCell>
        <mxCell id="R8BKyLHPafvrFV4cf_5N-65" value="" style="shape=partialRectangle;collapsible=0;dropTarget=0;pointerEvents=0;fillColor=none;top=0;left=0;bottom=0;right=0;points=[[0,0.5],[1,0.5]];portConstraint=eastwest;" vertex="1" parent="R8BKyLHPafvrFV4cf_5N-52">
          <mxGeometry y="150" width="180" height="30" as="geometry" />
        </mxCell>
        <mxCell id="R8BKyLHPafvrFV4cf_5N-66" value="" style="shape=partialRectangle;connectable=0;fillColor=none;top=0;left=0;bottom=0;right=0;editable=1;overflow=hidden;" vertex="1" parent="R8BKyLHPafvrFV4cf_5N-65">
          <mxGeometry width="30" height="30" as="geometry" />
        </mxCell>
        <mxCell id="R8BKyLHPafvrFV4cf_5N-67" value="createdAt" style="shape=partialRectangle;connectable=0;fillColor=none;top=0;left=0;bottom=0;right=0;align=left;spacingLeft=6;overflow=hidden;" vertex="1" parent="R8BKyLHPafvrFV4cf_5N-65">
          <mxGeometry x="30" width="150" height="30" as="geometry" />
        </mxCell>
        <mxCell id="R8BKyLHPafvrFV4cf_5N-68" value="" style="shape=partialRectangle;collapsible=0;dropTarget=0;pointerEvents=0;fillColor=none;top=0;left=0;bottom=0;right=0;points=[[0,0.5],[1,0.5]];portConstraint=eastwest;" vertex="1" parent="R8BKyLHPafvrFV4cf_5N-52">
          <mxGeometry y="180" width="180" height="30" as="geometry" />
        </mxCell>
        <mxCell id="R8BKyLHPafvrFV4cf_5N-69" value="" style="shape=partialRectangle;connectable=0;fillColor=none;top=0;left=0;bottom=0;right=0;editable=1;overflow=hidden;" vertex="1" parent="R8BKyLHPafvrFV4cf_5N-68">
          <mxGeometry width="30" height="30" as="geometry" />
        </mxCell>
        <mxCell id="R8BKyLHPafvrFV4cf_5N-70" value="updatedAt" style="shape=partialRectangle;connectable=0;fillColor=none;top=0;left=0;bottom=0;right=0;align=left;spacingLeft=6;overflow=hidden;" vertex="1" parent="R8BKyLHPafvrFV4cf_5N-68">
          <mxGeometry x="30" width="150" height="30" as="geometry" />
        </mxCell>
        <mxCell id="R8BKyLHPafvrFV4cf_5N-71" value="Session" style="shape=table;startSize=30;container=1;collapsible=1;childLayout=tableLayout;fixedRows=1;rowLines=0;fontStyle=1;align=center;resizeLast=1;" vertex="1" parent="1">
          <mxGeometry x="890" y="20" width="180" height="250" as="geometry" />
        </mxCell>
        <mxCell id="R8BKyLHPafvrFV4cf_5N-72" value="" style="shape=partialRectangle;collapsible=0;dropTarget=0;pointerEvents=0;fillColor=none;top=0;left=0;bottom=1;right=0;points=[[0,0.5],[1,0.5]];portConstraint=eastwest;" vertex="1" parent="R8BKyLHPafvrFV4cf_5N-71">
          <mxGeometry y="30" width="180" height="30" as="geometry" />
        </mxCell>
        <mxCell id="R8BKyLHPafvrFV4cf_5N-73" value="PK" style="shape=partialRectangle;connectable=0;fillColor=none;top=0;left=0;bottom=0;right=0;fontStyle=1;overflow=hidden;" vertex="1" parent="R8BKyLHPafvrFV4cf_5N-72">
          <mxGeometry width="30" height="30" as="geometry" />
        </mxCell>
        <mxCell id="R8BKyLHPafvrFV4cf_5N-74" value="id" style="shape=partialRectangle;connectable=0;fillColor=none;top=0;left=0;bottom=0;right=0;align=left;spacingLeft=6;fontStyle=5;overflow=hidden;" vertex="1" parent="R8BKyLHPafvrFV4cf_5N-72">
          <mxGeometry x="30" width="150" height="30" as="geometry" />
        </mxCell>
        <mxCell id="R8BKyLHPafvrFV4cf_5N-75" value="" style="shape=partialRectangle;collapsible=0;dropTarget=0;pointerEvents=0;fillColor=none;top=0;left=0;bottom=0;right=0;points=[[0,0.5],[1,0.5]];portConstraint=eastwest;" vertex="1" parent="R8BKyLHPafvrFV4cf_5N-71">
          <mxGeometry y="60" width="180" height="30" as="geometry" />
        </mxCell>
        <mxCell id="R8BKyLHPafvrFV4cf_5N-76" value="" style="shape=partialRectangle;connectable=0;fillColor=none;top=0;left=0;bottom=0;right=0;editable=1;overflow=hidden;" vertex="1" parent="R8BKyLHPafvrFV4cf_5N-75">
          <mxGeometry width="30" height="30" as="geometry" />
        </mxCell>
        <mxCell id="R8BKyLHPafvrFV4cf_5N-77" value="name" style="shape=partialRectangle;connectable=0;fillColor=none;top=0;left=0;bottom=0;right=0;align=left;spacingLeft=6;overflow=hidden;" vertex="1" parent="R8BKyLHPafvrFV4cf_5N-75">
          <mxGeometry x="30" width="150" height="30" as="geometry" />
        </mxCell>
        <mxCell id="R8BKyLHPafvrFV4cf_5N-78" value="" style="shape=partialRectangle;collapsible=0;dropTarget=0;pointerEvents=0;fillColor=none;top=0;left=0;bottom=0;right=0;points=[[0,0.5],[1,0.5]];portConstraint=eastwest;" vertex="1" parent="R8BKyLHPafvrFV4cf_5N-71">
          <mxGeometry y="90" width="180" height="30" as="geometry" />
        </mxCell>
        <mxCell id="R8BKyLHPafvrFV4cf_5N-79" value="" style="shape=partialRectangle;connectable=0;fillColor=none;top=0;left=0;bottom=0;right=0;editable=1;overflow=hidden;" vertex="1" parent="R8BKyLHPafvrFV4cf_5N-78">
          <mxGeometry width="30" height="30" as="geometry" />
        </mxCell>
        <mxCell id="R8BKyLHPafvrFV4cf_5N-80" value="description" style="shape=partialRectangle;connectable=0;fillColor=none;top=0;left=0;bottom=0;right=0;align=left;spacingLeft=6;overflow=hidden;" vertex="1" parent="R8BKyLHPafvrFV4cf_5N-78">
          <mxGeometry x="30" width="150" height="30" as="geometry" />
        </mxCell>
        <mxCell id="R8BKyLHPafvrFV4cf_5N-93" value="" style="shape=partialRectangle;collapsible=0;dropTarget=0;pointerEvents=0;fillColor=none;top=0;left=0;bottom=0;right=0;points=[[0,0.5],[1,0.5]];portConstraint=eastwest;" vertex="1" parent="R8BKyLHPafvrFV4cf_5N-71">
          <mxGeometry y="120" width="180" height="30" as="geometry" />
        </mxCell>
        <mxCell id="R8BKyLHPafvrFV4cf_5N-94" value="FK" style="shape=partialRectangle;connectable=0;fillColor=none;top=0;left=0;bottom=0;right=0;editable=1;overflow=hidden;" vertex="1" parent="R8BKyLHPafvrFV4cf_5N-93">
          <mxGeometry width="30" height="30" as="geometry" />
        </mxCell>
        <mxCell id="R8BKyLHPafvrFV4cf_5N-95" value="course" style="shape=partialRectangle;connectable=0;fillColor=none;top=0;left=0;bottom=0;right=0;align=left;spacingLeft=6;overflow=hidden;" vertex="1" parent="R8BKyLHPafvrFV4cf_5N-93">
          <mxGeometry x="30" width="150" height="30" as="geometry" />
        </mxCell>
        <mxCell id="R8BKyLHPafvrFV4cf_5N-81" value="" style="shape=partialRectangle;collapsible=0;dropTarget=0;pointerEvents=0;fillColor=none;top=0;left=0;bottom=0;right=0;points=[[0,0.5],[1,0.5]];portConstraint=eastwest;" vertex="1" parent="R8BKyLHPafvrFV4cf_5N-71">
          <mxGeometry y="150" width="180" height="30" as="geometry" />
        </mxCell>
        <mxCell id="R8BKyLHPafvrFV4cf_5N-82" value="" style="shape=partialRectangle;connectable=0;fillColor=none;top=0;left=0;bottom=0;right=0;editable=1;overflow=hidden;" vertex="1" parent="R8BKyLHPafvrFV4cf_5N-81">
          <mxGeometry width="30" height="30" as="geometry" />
        </mxCell>
        <mxCell id="R8BKyLHPafvrFV4cf_5N-83" value="enabled" style="shape=partialRectangle;connectable=0;fillColor=none;top=0;left=0;bottom=0;right=0;align=left;spacingLeft=6;overflow=hidden;" vertex="1" parent="R8BKyLHPafvrFV4cf_5N-81">
          <mxGeometry x="30" width="150" height="30" as="geometry" />
        </mxCell>
        <mxCell id="R8BKyLHPafvrFV4cf_5N-84" value="" style="shape=partialRectangle;collapsible=0;dropTarget=0;pointerEvents=0;fillColor=none;top=0;left=0;bottom=0;right=0;points=[[0,0.5],[1,0.5]];portConstraint=eastwest;" vertex="1" parent="R8BKyLHPafvrFV4cf_5N-71">
          <mxGeometry y="180" width="180" height="30" as="geometry" />
        </mxCell>
        <mxCell id="R8BKyLHPafvrFV4cf_5N-85" value="" style="shape=partialRectangle;connectable=0;fillColor=none;top=0;left=0;bottom=0;right=0;editable=1;overflow=hidden;" vertex="1" parent="R8BKyLHPafvrFV4cf_5N-84">
          <mxGeometry width="30" height="30" as="geometry" />
        </mxCell>
        <mxCell id="R8BKyLHPafvrFV4cf_5N-86" value="createdAt" style="shape=partialRectangle;connectable=0;fillColor=none;top=0;left=0;bottom=0;right=0;align=left;spacingLeft=6;overflow=hidden;" vertex="1" parent="R8BKyLHPafvrFV4cf_5N-84">
          <mxGeometry x="30" width="150" height="30" as="geometry" />
        </mxCell>
        <mxCell id="R8BKyLHPafvrFV4cf_5N-87" value="" style="shape=partialRectangle;collapsible=0;dropTarget=0;pointerEvents=0;fillColor=none;top=0;left=0;bottom=0;right=0;points=[[0,0.5],[1,0.5]];portConstraint=eastwest;" vertex="1" parent="R8BKyLHPafvrFV4cf_5N-71">
          <mxGeometry y="210" width="180" height="30" as="geometry" />
        </mxCell>
        <mxCell id="R8BKyLHPafvrFV4cf_5N-88" value="" style="shape=partialRectangle;connectable=0;fillColor=none;top=0;left=0;bottom=0;right=0;editable=1;overflow=hidden;" vertex="1" parent="R8BKyLHPafvrFV4cf_5N-87">
          <mxGeometry width="30" height="30" as="geometry" />
        </mxCell>
        <mxCell id="R8BKyLHPafvrFV4cf_5N-89" value="updatedAt" style="shape=partialRectangle;connectable=0;fillColor=none;top=0;left=0;bottom=0;right=0;align=left;spacingLeft=6;overflow=hidden;" vertex="1" parent="R8BKyLHPafvrFV4cf_5N-87">
          <mxGeometry x="30" width="150" height="30" as="geometry" />
        </mxCell>
        <mxCell id="R8BKyLHPafvrFV4cf_5N-96" style="edgeStyle=orthogonalEdgeStyle;rounded=0;orthogonalLoop=1;jettySize=auto;html=1;exitX=0;exitY=0.5;exitDx=0;exitDy=0;entryX=1;entryY=0.5;entryDx=0;entryDy=0;" edge="1" parent="1" source="R8BKyLHPafvrFV4cf_5N-93" target="R8BKyLHPafvrFV4cf_5N-53">
          <mxGeometry relative="1" as="geometry" />
        </mxCell>
        <mxCell id="R8BKyLHPafvrFV4cf_5N-97" value="Lesson" style="shape=table;startSize=30;container=1;collapsible=1;childLayout=tableLayout;fixedRows=1;rowLines=0;fontStyle=1;align=center;resizeLast=1;" vertex="1" parent="1">
          <mxGeometry x="1160" y="20" width="180" height="340" as="geometry" />
        </mxCell>
        <mxCell id="R8BKyLHPafvrFV4cf_5N-98" value="" style="shape=partialRectangle;collapsible=0;dropTarget=0;pointerEvents=0;fillColor=none;top=0;left=0;bottom=1;right=0;points=[[0,0.5],[1,0.5]];portConstraint=eastwest;" vertex="1" parent="R8BKyLHPafvrFV4cf_5N-97">
          <mxGeometry y="30" width="180" height="30" as="geometry" />
        </mxCell>
        <mxCell id="R8BKyLHPafvrFV4cf_5N-99" value="PK" style="shape=partialRectangle;connectable=0;fillColor=none;top=0;left=0;bottom=0;right=0;fontStyle=1;overflow=hidden;" vertex="1" parent="R8BKyLHPafvrFV4cf_5N-98">
          <mxGeometry width="30" height="30" as="geometry" />
        </mxCell>
        <mxCell id="R8BKyLHPafvrFV4cf_5N-100" value="id" style="shape=partialRectangle;connectable=0;fillColor=none;top=0;left=0;bottom=0;right=0;align=left;spacingLeft=6;fontStyle=5;overflow=hidden;" vertex="1" parent="R8BKyLHPafvrFV4cf_5N-98">
          <mxGeometry x="30" width="150" height="30" as="geometry" />
        </mxCell>
        <mxCell id="R8BKyLHPafvrFV4cf_5N-101" value="" style="shape=partialRectangle;collapsible=0;dropTarget=0;pointerEvents=0;fillColor=none;top=0;left=0;bottom=0;right=0;points=[[0,0.5],[1,0.5]];portConstraint=eastwest;" vertex="1" parent="R8BKyLHPafvrFV4cf_5N-97">
          <mxGeometry y="60" width="180" height="30" as="geometry" />
        </mxCell>
        <mxCell id="R8BKyLHPafvrFV4cf_5N-102" value="" style="shape=partialRectangle;connectable=0;fillColor=none;top=0;left=0;bottom=0;right=0;editable=1;overflow=hidden;" vertex="1" parent="R8BKyLHPafvrFV4cf_5N-101">
          <mxGeometry width="30" height="30" as="geometry" />
        </mxCell>
        <mxCell id="R8BKyLHPafvrFV4cf_5N-103" value="name" style="shape=partialRectangle;connectable=0;fillColor=none;top=0;left=0;bottom=0;right=0;align=left;spacingLeft=6;overflow=hidden;" vertex="1" parent="R8BKyLHPafvrFV4cf_5N-101">
          <mxGeometry x="30" width="150" height="30" as="geometry" />
        </mxCell>
        <mxCell id="R8BKyLHPafvrFV4cf_5N-104" value="" style="shape=partialRectangle;collapsible=0;dropTarget=0;pointerEvents=0;fillColor=none;top=0;left=0;bottom=0;right=0;points=[[0,0.5],[1,0.5]];portConstraint=eastwest;" vertex="1" parent="R8BKyLHPafvrFV4cf_5N-97">
          <mxGeometry y="90" width="180" height="30" as="geometry" />
        </mxCell>
        <mxCell id="R8BKyLHPafvrFV4cf_5N-105" value="" style="shape=partialRectangle;connectable=0;fillColor=none;top=0;left=0;bottom=0;right=0;editable=1;overflow=hidden;" vertex="1" parent="R8BKyLHPafvrFV4cf_5N-104">
          <mxGeometry width="30" height="30" as="geometry" />
        </mxCell>
        <mxCell id="R8BKyLHPafvrFV4cf_5N-106" value="description" style="shape=partialRectangle;connectable=0;fillColor=none;top=0;left=0;bottom=0;right=0;align=left;spacingLeft=6;overflow=hidden;" vertex="1" parent="R8BKyLHPafvrFV4cf_5N-104">
          <mxGeometry x="30" width="150" height="30" as="geometry" />
        </mxCell>
        <mxCell id="R8BKyLHPafvrFV4cf_5N-120" value="" style="shape=partialRectangle;collapsible=0;dropTarget=0;pointerEvents=0;fillColor=none;top=0;left=0;bottom=0;right=0;points=[[0,0.5],[1,0.5]];portConstraint=eastwest;" vertex="1" parent="R8BKyLHPafvrFV4cf_5N-97">
          <mxGeometry y="120" width="180" height="30" as="geometry" />
        </mxCell>
        <mxCell id="R8BKyLHPafvrFV4cf_5N-121" value="" style="shape=partialRectangle;connectable=0;fillColor=none;top=0;left=0;bottom=0;right=0;editable=1;overflow=hidden;" vertex="1" parent="R8BKyLHPafvrFV4cf_5N-120">
          <mxGeometry width="30" height="30" as="geometry" />
        </mxCell>
        <mxCell id="R8BKyLHPafvrFV4cf_5N-122" value="url" style="shape=partialRectangle;connectable=0;fillColor=none;top=0;left=0;bottom=0;right=0;align=left;spacingLeft=6;overflow=hidden;" vertex="1" parent="R8BKyLHPafvrFV4cf_5N-120">
          <mxGeometry x="30" width="150" height="30" as="geometry" />
        </mxCell>
        <mxCell id="R8BKyLHPafvrFV4cf_5N-123" value="" style="shape=partialRectangle;collapsible=0;dropTarget=0;pointerEvents=0;fillColor=none;top=0;left=0;bottom=0;right=0;points=[[0,0.5],[1,0.5]];portConstraint=eastwest;" vertex="1" parent="R8BKyLHPafvrFV4cf_5N-97">
          <mxGeometry y="150" width="180" height="30" as="geometry" />
        </mxCell>
        <mxCell id="R8BKyLHPafvrFV4cf_5N-124" value="" style="shape=partialRectangle;connectable=0;fillColor=none;top=0;left=0;bottom=0;right=0;editable=1;overflow=hidden;" vertex="1" parent="R8BKyLHPafvrFV4cf_5N-123">
          <mxGeometry width="30" height="30" as="geometry" />
        </mxCell>
        <mxCell id="R8BKyLHPafvrFV4cf_5N-125" value="duration" style="shape=partialRectangle;connectable=0;fillColor=none;top=0;left=0;bottom=0;right=0;align=left;spacingLeft=6;overflow=hidden;" vertex="1" parent="R8BKyLHPafvrFV4cf_5N-123">
          <mxGeometry x="30" width="150" height="30" as="geometry" />
        </mxCell>
        <mxCell id="R8BKyLHPafvrFV4cf_5N-126" value="" style="shape=partialRectangle;collapsible=0;dropTarget=0;pointerEvents=0;fillColor=none;top=0;left=0;bottom=0;right=0;points=[[0,0.5],[1,0.5]];portConstraint=eastwest;" vertex="1" parent="R8BKyLHPafvrFV4cf_5N-97">
          <mxGeometry y="180" width="180" height="30" as="geometry" />
        </mxCell>
        <mxCell id="R8BKyLHPafvrFV4cf_5N-127" value="" style="shape=partialRectangle;connectable=0;fillColor=none;top=0;left=0;bottom=0;right=0;editable=1;overflow=hidden;" vertex="1" parent="R8BKyLHPafvrFV4cf_5N-126">
          <mxGeometry width="30" height="30" as="geometry" />
        </mxCell>
        <mxCell id="R8BKyLHPafvrFV4cf_5N-128" value="status" style="shape=partialRectangle;connectable=0;fillColor=none;top=0;left=0;bottom=0;right=0;align=left;spacingLeft=6;overflow=hidden;" vertex="1" parent="R8BKyLHPafvrFV4cf_5N-126">
          <mxGeometry x="30" width="150" height="30" as="geometry" />
        </mxCell>
        <mxCell id="R8BKyLHPafvrFV4cf_5N-107" value="" style="shape=partialRectangle;collapsible=0;dropTarget=0;pointerEvents=0;fillColor=none;top=0;left=0;bottom=0;right=0;points=[[0,0.5],[1,0.5]];portConstraint=eastwest;" vertex="1" parent="R8BKyLHPafvrFV4cf_5N-97">
          <mxGeometry y="210" width="180" height="30" as="geometry" />
        </mxCell>
        <mxCell id="R8BKyLHPafvrFV4cf_5N-108" value="FK" style="shape=partialRectangle;connectable=0;fillColor=none;top=0;left=0;bottom=0;right=0;editable=1;overflow=hidden;" vertex="1" parent="R8BKyLHPafvrFV4cf_5N-107">
          <mxGeometry width="30" height="30" as="geometry" />
        </mxCell>
        <mxCell id="R8BKyLHPafvrFV4cf_5N-109" value="session" style="shape=partialRectangle;connectable=0;fillColor=none;top=0;left=0;bottom=0;right=0;align=left;spacingLeft=6;overflow=hidden;" vertex="1" parent="R8BKyLHPafvrFV4cf_5N-107">
          <mxGeometry x="30" width="150" height="30" as="geometry" />
        </mxCell>
        <mxCell id="R8BKyLHPafvrFV4cf_5N-110" value="" style="shape=partialRectangle;collapsible=0;dropTarget=0;pointerEvents=0;fillColor=none;top=0;left=0;bottom=0;right=0;points=[[0,0.5],[1,0.5]];portConstraint=eastwest;" vertex="1" parent="R8BKyLHPafvrFV4cf_5N-97">
          <mxGeometry y="240" width="180" height="30" as="geometry" />
        </mxCell>
        <mxCell id="R8BKyLHPafvrFV4cf_5N-111" value="" style="shape=partialRectangle;connectable=0;fillColor=none;top=0;left=0;bottom=0;right=0;editable=1;overflow=hidden;" vertex="1" parent="R8BKyLHPafvrFV4cf_5N-110">
          <mxGeometry width="30" height="30" as="geometry" />
        </mxCell>
        <mxCell id="R8BKyLHPafvrFV4cf_5N-112" value="enabled" style="shape=partialRectangle;connectable=0;fillColor=none;top=0;left=0;bottom=0;right=0;align=left;spacingLeft=6;overflow=hidden;" vertex="1" parent="R8BKyLHPafvrFV4cf_5N-110">
          <mxGeometry x="30" width="150" height="30" as="geometry" />
        </mxCell>
        <mxCell id="R8BKyLHPafvrFV4cf_5N-113" value="" style="shape=partialRectangle;collapsible=0;dropTarget=0;pointerEvents=0;fillColor=none;top=0;left=0;bottom=0;right=0;points=[[0,0.5],[1,0.5]];portConstraint=eastwest;" vertex="1" parent="R8BKyLHPafvrFV4cf_5N-97">
          <mxGeometry y="270" width="180" height="30" as="geometry" />
        </mxCell>
        <mxCell id="R8BKyLHPafvrFV4cf_5N-114" value="" style="shape=partialRectangle;connectable=0;fillColor=none;top=0;left=0;bottom=0;right=0;editable=1;overflow=hidden;" vertex="1" parent="R8BKyLHPafvrFV4cf_5N-113">
          <mxGeometry width="30" height="30" as="geometry" />
        </mxCell>
        <mxCell id="R8BKyLHPafvrFV4cf_5N-115" value="createdAt" style="shape=partialRectangle;connectable=0;fillColor=none;top=0;left=0;bottom=0;right=0;align=left;spacingLeft=6;overflow=hidden;" vertex="1" parent="R8BKyLHPafvrFV4cf_5N-113">
          <mxGeometry x="30" width="150" height="30" as="geometry" />
        </mxCell>
        <mxCell id="R8BKyLHPafvrFV4cf_5N-116" value="" style="shape=partialRectangle;collapsible=0;dropTarget=0;pointerEvents=0;fillColor=none;top=0;left=0;bottom=0;right=0;points=[[0,0.5],[1,0.5]];portConstraint=eastwest;" vertex="1" parent="R8BKyLHPafvrFV4cf_5N-97">
          <mxGeometry y="300" width="180" height="30" as="geometry" />
        </mxCell>
        <mxCell id="R8BKyLHPafvrFV4cf_5N-117" value="" style="shape=partialRectangle;connectable=0;fillColor=none;top=0;left=0;bottom=0;right=0;editable=1;overflow=hidden;" vertex="1" parent="R8BKyLHPafvrFV4cf_5N-116">
          <mxGeometry width="30" height="30" as="geometry" />
        </mxCell>
        <mxCell id="R8BKyLHPafvrFV4cf_5N-118" value="updatedAt" style="shape=partialRectangle;connectable=0;fillColor=none;top=0;left=0;bottom=0;right=0;align=left;spacingLeft=6;overflow=hidden;" vertex="1" parent="R8BKyLHPafvrFV4cf_5N-116">
          <mxGeometry x="30" width="150" height="30" as="geometry" />
        </mxCell>
        <mxCell id="R8BKyLHPafvrFV4cf_5N-119" style="edgeStyle=orthogonalEdgeStyle;rounded=0;orthogonalLoop=1;jettySize=auto;html=1;exitX=0;exitY=0.5;exitDx=0;exitDy=0;entryX=1;entryY=0.5;entryDx=0;entryDy=0;" edge="1" parent="1" source="R8BKyLHPafvrFV4cf_5N-107" target="R8BKyLHPafvrFV4cf_5N-72">
          <mxGeometry relative="1" as="geometry" />
        </mxCell>
      </root>
    </mxGraphModel>
  </diagram>
</mxfile>
